PathFileType	4	(X/Y/Z)	s01c0103.trc
DataRate	CameraRate	NumFrames	NumMarkers	Units	OrigDataRate	OrigDataStartFrame	OrigNumFrames
200	200	7	48	mm	200	1750	2000
Frame#	Time	racr			lacr			c7			jug			rlel			rdr			llel			ldr			s2			lic			ric			lasi			rasi			rpsi			lpsi			rgt			lgt			rth1			rth2			rth3			rth4			rlfc			rsh1			rsh2			rsh3			rsh4			rlmal			rmmal			rcal			rtoe			rmt5			lth1			lth2			lth4			lth3			llfc			lsh1			lsh2			lsh3			lsh4			llmal			lmmal			lcal			ltoe			lmt5			SBIKE			LBIKE			RBIKE			
		X1	Y1	Z1	X2	Y2	Z2	X3	Y3	Z3	X4	Y4	Z4	X5	Y5	Z5	X6	Y6	Z6	X7	Y7	Z7	X8	Y8	Z8	X9	Y9	Z9	X10	Y10	Z10	X11	Y11	Z11	X12	Y12	Z12	X13	Y13	Z13	X14	Y14	Z14	X15	Y15	Z15	X16	Y16	Z16	X17	Y17	Z17	X18	Y18	Z18	X19	Y19	Z19	X20	Y20	Z20	X21	Y21	Z21	X22	Y22	Z22	X23	Y23	Z23	X24	Y24	Z24	X25	Y25	Z25	X26	Y26	Z26	X27	Y27	Z27	X28	Y28	Z28	X29	Y29	Z29	X30	Y30	Z30	X31	Y31	Z31	X32	Y32	Z32	X33	Y33	Z33	X34	Y34	Z34	X35	Y35	Z35	X36	Y36	Z36	X37	Y37	Z37	X38	Y38	Z38	X39	Y39	Z39	X40	Y40	Z40	X41	Y41	Z41	X42	Y42	Z42	X43	Y43	Z43	X44	Y44	Z44	X45	Y45	Z45	X46	Y46	Z46	X47	Y47	Z47	X48	Y48	Z48	
1750	8.7500	511.356265	1323.421779	-139.908956	524.654887	1280.207880	-454.442333	476.243461	1383.413945	-295.656382	462.405280	1219.323147	-289.549916	576.989182	1064.422319	-23.474736	730.050423	858.738559	-83.350547	523.175611	1011.783253	-572.578621	703.228065	867.559697	-461.971938	0.000000	0.000000	-0.000000	102.725022	1168.424645	-449.898581	107.508523	1176.639547	-121.372524	106.238416	1115.155580	-424.524614	135.421073	1134.677533	-151.007016	-27.878190	1199.155691	-221.080272	-34.669347	1197.951911	-327.261142	73.311576	1072.035350	-80.780413	45.791277	1018.633487	-459.785773	190.482397	1011.214734	-77.304549	272.336188	992.072525	-80.518300	355.959288	960.618806	-99.072253	285.912909	1040.796728	-106.191312	426.534401	878.847316	-129.077074	341.859698	800.836708	-93.073321	283.905103	739.029579	-95.265827	216.957898	680.636149	-101.606437	316.365308	705.685399	-133.430010	120.223226	608.599809	-114.726791	160.034820	587.961813	-193.184466	72.994549	616.161515	-169.596533	232.711439	396.275739	-146.241913	144.613572	461.469556	-81.029400	100.246727	900.281142	-460.096049	163.958138	838.306091	-456.846139	202.904173	876.602166	-456.037042	218.977081	775.181778	-436.333064	286.509861	672.308288	-421.759239	238.253611	571.972774	-454.093375	230.792164	485.820134	-447.464987	220.850429	401.408169	-433.924391	286.447265	483.556569	-420.916248	206.490625	272.928463	-418.358595	260.642611	311.857804	-343.956559	162.456777	243.006762	-376.466094	439.666534	216.816112	-387.062058	334.149810	191.256573	-450.919677	-230.567210	890.387486	-258.330201	-23.821934	79.974740	-458.260672	-24.194274	80.220345	-58.040792	
1751	8.7550	510.332905	1324.774566	-139.061480	525.482675	1281.436525	-453.108603	476.032005	1384.272279	-294.541763	462.111612	1220.469273	-288.764245	576.944892	1066.078980	-25.226640	729.959706	859.031994	-83.813772	525.068191	1013.747137	-572.003837	703.896194	867.275019	-461.979157	0.000000	0.000000	-0.000000	103.471228	1167.376630	-451.161044	106.938698	1177.289323	-122.294897	107.402277	1114.676614	-425.293175	135.460129	1135.370094	-151.811051	-27.964683	1198.705838	-223.300189	-34.246118	1197.220569	-329.418291	73.022227	1073.105733	-81.707487	45.887365	1017.299341	-460.817573	190.229225	1013.642605	-78.013163	272.354271	996.023485	-81.125479	356.662012	966.470187	-99.065902	285.165380	1045.322728	-106.104282	429.724744	887.467068	-128.790458	345.503080	809.773587	-93.005814	287.760994	747.878937	-95.652739	221.178092	689.059551	-102.160755	320.783925	714.188017	-133.131696	124.971251	615.586096	-115.877110	165.473324	595.476143	-193.858541	77.462816	621.938052	-170.600663	242.264337	406.148004	-145.776656	152.230705	469.166920	-81.368081	97.885947	898.717679	-461.390288	160.195466	835.271368	-458.172242	199.993414	872.554652	-456.949416	213.546564	770.861422	-437.645493	279.433148	666.549862	-422.718761	230.372126	566.654020	-455.105399	222.706699	480.545137	-448.162917	212.592956	396.150950	-434.412024	278.555678	478.156135	-422.054321	198.644183	267.299000	-418.247244	254.662235	308.057648	-344.107684	155.075811	238.023853	-376.453574	431.752077	209.269671	-386.961624	326.013134	184.458796	-450.835801	-230.636383	890.387680	-258.435006	-23.843107	79.925829	-458.300330	-24.219336	80.223165	-58.055861	
1752	8.7600	509.277566	1326.238411	-138.465784	526.242946	1282.674474	-451.772229	475.767246	1385.114183	-293.422106	461.964474	1221.132870	-288.026934	576.544263	1067.771638	-27.004910	729.835973	859.402961	-84.206616	526.819234	1015.575222	-571.397433	704.502948	867.002181	-461.942931	0.000000	0.000000	-0.000000	103.987017	1166.105083	-452.076809	106.620409	1177.979266	-123.042134	108.410866	1114.087625	-426.090430	135.331411	1135.983885	-152.668416	-28.124842	1198.349475	-225.422043	-33.937181	1196.631656	-331.453494	72.734729	1074.106060	-82.645815	45.980886	1016.364305	-461.811890	189.751662	1016.115192	-78.742770	272.238192	999.911572	-81.727085	356.881973	971.972268	-99.519987	284.412489	1049.660073	-105.973066	432.664153	895.833774	-128.546807	348.861990	818.589858	-92.957395	291.609874	756.247394	-95.890647	225.388215	696.999928	-102.701771	325.288543	722.405610	-132.489896	129.978463	621.748780	-117.095353	171.222994	602.303564	-194.459837	82.133492	627.027960	-171.609460	251.435182	414.466881	-146.539796	159.644144	475.989200	-81.927293	95.548139	897.459146	-462.722058	156.441345	832.633113	-459.643284	197.156646	869.055480	-458.309920	208.305429	767.002473	-439.034726	272.272944	661.817925	-423.971153	222.221174	561.942048	-456.649751	214.550919	475.910175	-449.005171	204.379024	391.553224	-434.867604	270.620740	473.422636	-423.375739	190.671015	262.423244	-418.149998	248.392433	304.722613	-344.230388	147.454796	233.719428	-376.460997	423.610241	202.077476	-386.873977	317.606799	178.222743	-450.690998	-230.705192	890.413315	-258.540879	-23.883890	79.904643	-458.325180	-24.249911	80.239829	-58.067438	
1753	8.7650	508.224421	1327.579898	-138.036452	526.923417	1283.906778	-450.438790	475.446491	1385.921975	-292.307981	461.547091	1222.324825	-287.460148	575.942136	1069.235401	-28.510489	729.819496	860.000679	-84.879299	528.475349	1017.344973	-570.826950	705.448547	866.981287	-461.976124	0.000000	0.000000	-0.000000	104.609773	1164.742620	-452.516519	106.111127	1178.611682	-123.817654	109.268271	1113.396809	-426.927118	135.216461	1136.661655	-153.262759	-28.384249	1198.193367	-227.400705	-33.752911	1196.213628	-333.340625	72.429383	1075.190403	-83.456358	46.034422	1015.685050	-462.839040	189.332349	1018.773067	-79.461379	272.021574	1003.721886	-82.485844	357.059080	977.483504	-99.425989	283.647576	1054.081504	-105.769242	435.184249	904.123479	-128.107511	352.094262	827.170473	-93.089431	295.382278	764.330717	-96.101409	229.560721	704.621769	-102.943191	329.932315	730.329922	-131.624506	135.333508	627.207741	-118.281254	177.263027	608.424476	-195.007822	87.152265	631.350383	-172.577527	260.785638	422.513831	-146.659818	167.822225	482.220625	-82.299945	93.174204	896.534190	-464.145151	152.724667	830.466487	-461.225385	194.032056	865.841807	-459.922047	203.198817	763.631524	-440.670575	265.355702	657.647112	-425.382620	214.570517	557.700175	-457.907037	206.542710	471.810465	-449.903036	196.194452	387.560816	-435.432006	262.887145	469.237031	-424.817461	182.701963	258.436169	-418.235625	241.857063	301.849370	-344.325165	139.652864	230.000384	-376.483273	415.171341	195.450600	-386.769611	308.946709	172.631595	-450.624680	-230.787427	890.415716	-258.650866	-23.895993	79.884850	-458.348698	-24.256883	80.237218	-58.090233	
1754	8.7700	507.222677	1328.753783	-137.793932	527.513122	1285.116797	-449.112417	475.069644	1386.682003	-291.209847	461.253408	1222.935921	-286.836035	575.030135	1070.364001	-29.476038	729.666873	860.542553	-85.339816	530.048697	1019.124703	-570.253289	706.269660	866.932624	-462.027721	0.000000	0.000000	-0.000000	105.637134	1163.811359	-452.789206	105.631524	1179.204372	-124.498821	109.874187	1112.633400	-427.722515	135.004538	1137.321120	-153.981087	-28.769856	1198.165259	-229.210341	-33.691359	1195.993410	-335.060120	72.096980	1076.517113	-84.136439	45.960644	1015.217584	-463.810558	189.001811	1021.543660	-80.225087	271.742497	1007.499839	-83.270722	357.361125	982.868597	-99.504693	282.874527	1058.371723	-105.651198	437.327516	912.139153	-127.629083	355.316092	835.298804	-93.783524	299.071202	771.837240	-96.257947	233.947426	711.416911	-103.306953	334.493395	737.806680	-130.863332	140.944634	631.929883	-119.286747	183.468689	613.843800	-195.517357	92.401932	634.886725	-173.091871	270.487303	430.032485	-146.749356	176.130335	487.988321	-82.658510	90.914923	895.936841	-465.515303	149.108050	828.630286	-462.853142	191.089212	863.405667	-461.371634	198.280010	760.863877	-442.359336	258.764478	654.068433	-427.014994	207.163552	554.175888	-459.308005	198.808223	468.268989	-450.843867	188.165271	384.088355	-436.028698	255.336732	465.495711	-426.348374	174.649970	255.150035	-418.344745	235.080091	299.434648	-344.392451	131.704034	226.874842	-376.515203	406.593315	189.195651	-386.724927	300.065548	167.692765	-450.522169	-230.861719	890.404259	-258.711371	-23.910655	79.877455	-458.371515	-24.277367	80.225513	-58.105926	
1755	8.7750	506.330267	1329.924690	-137.705892	528.002718	1286.289072	-447.800891	474.639551	1387.382630	-290.144322	460.923676	1223.802140	-286.486435	573.883405	1071.050052	-29.997600	729.464405	861.201343	-85.915239	531.452108	1020.827059	-569.646514	706.364315	866.512984	-462.422582	0.000000	0.000000	-0.000000	107.066430	1162.998705	-452.941934	105.038649	1179.776641	-125.021705	110.207660	1112.005594	-428.432412	134.630063	1138.196166	-154.599253	-29.334868	1198.393499	-230.833061	-33.738467	1195.993203	-336.601046	71.759830	1078.068918	-84.667313	45.673930	1015.022153	-464.663494	188.541578	1024.382242	-80.920702	271.318135	1011.246016	-84.601497	357.555366	987.948508	-99.559108	282.076016	1062.599779	-105.735453	439.146420	919.978849	-127.102278	358.281471	842.920548	-93.661050	302.908297	778.793857	-96.350049	238.601352	717.540516	-103.517842	339.156380	744.754091	-130.063670	146.480049	636.246421	-119.696824	189.786177	618.563095	-195.935073	98.125762	637.398313	-174.357237	280.463494	437.157442	-146.766194	184.621442	492.916302	-83.237585	88.687752	895.596821	-466.847546	145.628090	827.250142	-464.580232	188.332131	861.317941	-462.862215	193.672570	758.615178	-444.363037	252.553061	651.144117	-428.896058	200.039823	551.236257	-460.671586	191.228754	465.517772	-451.746699	180.236847	381.423744	-436.632819	248.011600	462.420999	-427.890559	166.557914	252.572829	-418.487566	228.085404	297.475147	-344.432771	123.699131	223.955431	-376.551782	397.764834	183.315216	-386.606877	290.912655	163.337470	-450.370556	-230.936787	890.400936	-258.751577	-23.930562	79.840714	-458.397005	-24.300263	80.241661	-58.102425	
1756	8.7800	505.452493	1330.918574	-137.682231	528.386819	1287.408360	-446.515140	474.159375	1388.021280	-289.124948	460.664792	1224.486876	-286.095772	572.330268	1071.315711	-29.931913	729.206185	861.827511	-86.443849	532.817797	1022.336378	-568.969561	707.123638	866.141790	-462.576026	0.000000	0.000000	-0.000000	108.146972	1162.504973	-453.099598	104.466537	1180.435000	-125.429403	110.404202	1111.706675	-429.139282	134.206682	1139.191563	-155.093944	-30.005552	1198.872937	-232.246297	-33.869590	1196.223144	-337.963011	71.490665	1079.846171	-85.062794	45.282455	1015.044805	-465.378993	188.197132	1027.263939	-81.470521	271.067224	1015.077383	-85.011833	357.591818	993.062775	-99.589350	281.271310	1066.743674	-105.825370	440.642577	927.509386	-126.633161	361.150727	849.959296	-93.549905	306.789528	785.034711	-96.249440	243.407274	722.709428	-103.652008	343.914585	751.264271	-129.205471	152.146234	638.831838	-120.185982	196.039679	622.569014	-196.234209	103.510527	639.323126	-174.954325	290.686556	443.720115	-146.736105	194.158793	497.826659	-82.858859	86.548942	895.528630	-468.188269	142.242563	826.178623	-466.733920	185.880541	859.672573	-464.672955	189.452039	756.866110	-446.416902	246.880091	648.515410	-430.943728	193.452296	548.998595	-461.991217	184.029637	463.429357	-452.619266	172.455248	379.518216	-437.166481	241.010922	459.964734	-429.366457	158.499176	250.866196	-418.531048	220.896937	295.967535	-344.446591	115.567939	221.697676	-376.592660	388.783336	177.892591	-386.582148	281.571260	159.734287	-450.345976	-230.997585	890.390397	-258.780658	-23.943235	79.849275	-458.394595	-24.312366	80.240311	-58.110913	
